<svg width="25" height="24" viewBox="0 0 25 24" fill="none" xmlns="http://www.w3.org/2000/svg">
<g clip-path="url(#clip0)">
<path d="M24.4196 7.48694L13.4509 0.174439C13.0765 -0.0559512 12.6769 -0.0580606 12.2991 0.174439L1.33034 7.48694C1.04909 7.67439 0.875 8.00927 0.875 8.34405V15.6565C0.875 15.9913 1.04909 16.3262 1.33039 16.5137L12.2991 23.8272C12.6735 24.0576 13.0731 24.0597 13.4509 23.8272L24.4197 16.5137C24.7009 16.3262 24.875 15.9913 24.875 15.6565V8.34405C24.875 8.00927 24.7009 7.67439 24.4196 7.48694ZM13.9062 2.96008L21.9822 8.34405L18.3795 10.7548L13.9062 7.76814V2.96008ZM11.8438 2.96008V7.76814L7.37052 10.7548L3.76784 8.34405L11.8438 2.96008ZM2.9375 10.2726L5.52233 12.0003L2.9375 13.728V10.2726ZM11.8438 21.0405L3.76784 15.6565L7.37052 13.2458L11.8438 16.2325V21.0405ZM12.875 14.4378L9.23211 12.0003L12.875 9.5628L16.5179 12.0003L12.875 14.4378ZM13.9062 21.0405V16.2325L18.3795 13.2458L21.9822 15.6565L13.9062 21.0405ZM22.8125 13.728L20.2277 12.0003L22.8125 10.2726V13.728Z" fill="#1F2937"/>
</g>
<defs>
<clipPath id="clip0">
<rect width="24" height="24" fill="white" transform="translate(0.875)"/>
</clipPath>
</defs>
</svg>
