<svg width="25" height="24" viewBox="0 0 25 24" fill="none" xmlns="http://www.w3.org/2000/svg">
<g clip-path="url(#clip0)">
<path d="M8.65156 18.6281C8.65156 18.7219 8.54375 18.7969 8.40781 18.7969C8.25312 18.8109 8.14531 18.7359 8.14531 18.6281C8.14531 18.5344 8.25313 18.4594 8.38906 18.4594C8.52969 18.4453 8.65156 18.5203 8.65156 18.6281ZM7.19375 18.4172C7.16094 18.5109 7.25469 18.6187 7.39531 18.6469C7.51719 18.6937 7.65781 18.6469 7.68594 18.5531C7.71406 18.4594 7.625 18.3516 7.48438 18.3094C7.3625 18.2766 7.22656 18.3234 7.19375 18.4172ZM9.26562 18.3375C9.12969 18.3703 9.03594 18.4594 9.05 18.5672C9.06406 18.6609 9.18594 18.7219 9.32656 18.6891C9.4625 18.6562 9.55625 18.5672 9.54219 18.4734C9.52812 18.3844 9.40156 18.3234 9.26562 18.3375ZM12.35 0.375C5.84844 0.375 0.875 5.31094 0.875 11.8125C0.875 17.0109 4.14688 21.4594 8.82031 23.025C9.42031 23.1328 9.63125 22.7625 9.63125 22.4578C9.63125 22.1672 9.61719 20.5641 9.61719 19.5797C9.61719 19.5797 6.33594 20.2828 5.64688 18.1828C5.64688 18.1828 5.1125 16.8187 4.34375 16.4672C4.34375 16.4672 3.27031 15.7312 4.41875 15.7453C4.41875 15.7453 5.58594 15.8391 6.22812 16.9547C7.25469 18.7641 8.975 18.2437 9.64531 17.9344C9.75313 17.1844 10.0578 16.6641 10.3953 16.3547C7.775 16.0641 5.13125 15.6844 5.13125 11.175C5.13125 9.88594 5.4875 9.23906 6.2375 8.41406C6.11562 8.10937 5.71719 6.85312 6.35938 5.23125C7.33906 4.92656 9.59375 6.49687 9.59375 6.49687C10.5312 6.23438 11.5391 6.09844 12.5375 6.09844C13.5359 6.09844 14.5438 6.23438 15.4813 6.49687C15.4813 6.49687 17.7359 4.92187 18.7156 5.23125C19.3578 6.85781 18.9594 8.10937 18.8375 8.41406C19.5875 9.24375 20.0469 9.89062 20.0469 11.175C20.0469 15.6984 17.2859 16.0594 14.6656 16.3547C15.0969 16.725 15.4625 17.4281 15.4625 18.5297C15.4625 20.1094 15.4484 22.0641 15.4484 22.4484C15.4484 22.7531 15.6641 23.1234 16.2594 23.0156C20.9469 21.4594 24.125 17.0109 24.125 11.8125C24.125 5.31094 18.8516 0.375 12.35 0.375ZM5.43125 16.5422C5.37031 16.5891 5.38438 16.6969 5.46406 16.7859C5.53906 16.8609 5.64687 16.8937 5.70781 16.8328C5.76875 16.7859 5.75469 16.6781 5.675 16.5891C5.6 16.5141 5.49219 16.4812 5.43125 16.5422ZM4.925 16.1625C4.89219 16.2234 4.93906 16.2984 5.03281 16.3453C5.10781 16.3922 5.20156 16.3781 5.23438 16.3125C5.26719 16.2516 5.22031 16.1766 5.12656 16.1297C5.03281 16.1016 4.95781 16.1156 4.925 16.1625ZM6.44375 17.8312C6.36875 17.8922 6.39687 18.0328 6.50469 18.1219C6.6125 18.2297 6.74844 18.2437 6.80937 18.1687C6.87031 18.1078 6.84219 17.9672 6.74844 17.8781C6.64531 17.7703 6.50469 17.7562 6.44375 17.8312ZM5.90938 17.1422C5.83437 17.1891 5.83437 17.3109 5.90938 17.4187C5.98438 17.5266 6.11094 17.5734 6.17188 17.5266C6.24687 17.4656 6.24687 17.3438 6.17188 17.2359C6.10625 17.1281 5.98438 17.0812 5.90938 17.1422Z" fill="#1F2937"/>
</g>
<defs>
<clipPath id="clip0">
<rect width="23.25" height="24" fill="white" transform="translate(0.875)"/>
</clipPath>
</defs>
</svg>
